<?xml version="1.0" encoding="utf-8"?>
<svg xmlns="http://www.w3.org/2000/svg" style="margin: auto; background: none; display: block; shape-rendering: auto;" width="286" height="282" preserveAspectRatio="xMidYMid">
<style type="text/css">
  text {
    text-anchor: middle; font-size: 46px; opacity: 0;
  }
</style>
<g style="transform-origin:143px 141px;transform:scale(1)">
<g transform="translate(143,141)">
  <g transform="translate(2,0)"><g class="path" style="transform: scale(0.91); transform-origin: -99.54px -3.51763px; animation: 1s linear 0s infinite normal forwards running breath-a8823b62-1d5c-40b8-a99f-45323258787d;"><path d="M23.13-20.66L17.95 0L9.79 0L1.30-32.34L10.40-32.34L15.77-9.39L20.53-32.34L28.71-32.34L33.92-8.80L39.78-32.34L45.28-32.34L35.87 0L27.69 0L23.13-20.66" fill="#74007a" stroke="none" stroke-width="none" transform="translate(-122.83001708984375,12.652365199497774)" style="fill: rgb(196, 11, 205);"></path></g><g class="path" style="transform: scale(0.91); transform-origin: -61.355px -3.51763px; animation: 1s linear -0.65s infinite normal forwards running breath-a8823b62-1d5c-40b8-a99f-45323258787d;"><path d="M73.09-4.13L73.09 0L49.86 0L49.86-32.34L73.09-32.34L73.09-28.21L58.78-28.21L58.78-18.22L69.83-18.22L69.83-14.11L58.78-14.11L58.78-4.13L73.09-4.13" fill="#74007a" stroke="none" stroke-width="none" transform="translate(-122.83001708984375,12.652365199497774)" style="fill: rgb(196, 11, 205);"></path></g><g class="path" style="transform: scale(0.91); transform-origin: -32.605px -3.51763px; animation: 1s linear -0.52s infinite normal forwards running breath-a8823b62-1d5c-40b8-a99f-45323258787d;"><path d="M101.84-4.11L101.84 0L78.61 0L78.61-32.34L87.53-32.34L87.53-4.11L101.84-4.11" fill="#74007a" stroke="none" stroke-width="none" transform="translate(-122.83001708984375,12.652365199497774)" style="fill: rgb(218, 112, 220);"></path></g><g class="path" style="transform: scale(0.91); transform-origin: -4.62001px -3.57763px; animation: 1s linear -0.78s infinite normal forwards running breath-a8823b62-1d5c-40b8-a99f-45323258787d;"><path d="M133.82-24.33L133.82-24.33L129.98-22.71L129.98-22.71Q129.53-24.17 128.78-25.38L128.78-25.38L128.78-25.38Q128.03-26.59 126.98-27.46L126.98-27.46L126.98-27.46Q125.94-28.32 124.61-28.81L124.61-28.81L124.61-28.81Q123.29-29.29 121.72-29.29L121.72-29.29L121.72-29.29Q120.03-29.29 118.63-28.74L118.63-28.74L118.63-28.74Q117.22-28.19 116.11-27.22L116.11-27.22L116.11-27.22Q115-26.26 114.17-24.98L114.17-24.98L114.17-24.98Q113.34-23.70 112.78-22.25L112.78-22.25L112.78-22.25Q112.21-20.80 111.95-19.25L111.95-19.25L111.95-19.25Q111.68-17.70 111.68-16.22L111.68-16.22L111.68-16.22Q111.68-13.86 112.23-11.52L112.23-11.52L112.23-11.52Q112.78-9.19 113.98-7.32L113.98-7.32L113.98-7.32Q115.18-5.46 117.09-4.30L117.09-4.30L117.09-4.30Q119.00-3.14 121.72-3.14L121.72-3.14L121.72-3.14Q123.15-3.14 124.43-3.63L124.43-3.63L124.43-3.63Q125.71-4.11 126.76-4.95L126.76-4.95L126.76-4.95Q127.80-5.79 128.59-6.94L128.59-6.94L128.59-6.94Q129.38-8.09 129.85-9.41L129.85-9.41L133.73-7.86L133.73-7.86Q132.88-5.73 131.40-4.12L131.40-4.12L131.40-4.12Q129.91-2.52 128.02-1.46L128.02-1.46L128.02-1.46Q126.12-0.40 123.95 0.12L123.95 0.12L123.95 0.12Q121.78 0.65 119.58 0.65L119.58 0.65L119.58 0.65Q117.20 0.65 115.01 0.07L115.01 0.07L115.01 0.07Q112.82-0.52 110.93-1.59L110.93-1.59L110.93-1.59Q109.05-2.67 107.51-4.20L107.51-4.20L107.51-4.20Q105.97-5.73 104.88-7.59L104.88-7.59L104.88-7.59Q103.79-9.46 103.20-11.65L103.20-11.65L103.20-11.65Q102.60-13.84 102.60-16.22L102.60-16.22L102.60-16.22Q102.60-18.60 103.20-20.79L103.20-20.79L103.20-20.79Q103.79-22.98 104.88-24.85L104.88-24.85L104.88-24.85Q105.97-26.73 107.51-28.26L107.51-28.26L107.51-28.26Q109.05-29.78 110.93-30.86L110.93-30.86L110.93-30.86Q112.82-31.94 115.01-32.52L115.01-32.52L115.01-32.52Q117.20-33.11 119.58-33.11L119.58-33.11L119.58-33.11Q121.87-33.11 124.06-32.57L124.06-32.57L124.06-32.57Q126.25-32.03 128.14-30.94L128.14-30.94L128.14-30.94Q130.03-29.85 131.50-28.20L131.50-28.20L131.50-28.20Q132.97-26.55 133.82-24.33" fill="#74007a" stroke="none" stroke-width="none" transform="translate(-122.83001708984375,12.652365199497774)" style="fill: rgb(116, 0, 122);"></path></g><g class="path" style="transform: scale(0.91); transform-origin: 32.195px -3.57763px; animation: 1s linear -0.26s infinite normal forwards running breath-a8823b62-1d5c-40b8-a99f-45323258787d;"><path d="M172.79-16.22L172.79-16.22L172.79-16.22Q172.79-12.31 171.44-9.18L171.44-9.18L171.44-9.18Q170.10-6.04 167.72-3.86L167.72-3.86L167.72-3.86Q165.33-1.68 162.08-0.52L162.08-0.52L162.08-0.52Q158.82 0.65 155.03 0.65L155.03 0.65L155.03 0.65Q151.23 0.65 147.97-0.52L147.97-0.52L147.97-0.52Q144.72-1.68 142.33-3.86L142.33-3.86L142.33-3.86Q139.95-6.04 138.61-9.18L138.61-9.18L138.61-9.18Q137.26-12.31 137.26-16.22L137.26-16.22L137.26-16.22Q137.26-20.19 138.60-23.33L138.60-23.33L138.60-23.33Q139.93-26.46 142.30-28.63L142.30-28.63L142.30-28.63Q144.67-30.79 147.93-31.95L147.93-31.95L147.93-31.95Q151.18-33.11 155.03-33.11L155.03-33.11L155.03-33.11Q158.87-33.11 162.12-31.95L162.12-31.95L162.12-31.95Q165.38-30.79 167.75-28.63L167.75-28.63L167.75-28.63Q170.12-26.46 171.46-23.33L171.46-23.33L171.46-23.33Q172.79-20.19 172.79-16.22zM163.72-16.22L163.72-16.22L163.72-16.22Q163.72-17.70 163.58-19.25L163.58-19.25L163.58-19.25Q163.45-20.80 163.09-22.26L163.09-22.26L163.09-22.26Q162.73-23.72 162.11-25.00L162.11-25.00L162.11-25.00Q161.49-26.28 160.53-27.23L160.53-27.23L160.53-27.23Q159.56-28.19 158.20-28.74L158.20-28.74L158.20-28.74Q156.84-29.29 155.03-29.29L155.03-29.29L155.03-29.29Q153.18-29.29 151.81-28.74L151.81-28.74L151.81-28.74Q150.44-28.19 149.48-27.25L149.48-27.25L149.48-27.25Q148.51-26.30 147.91-25.02L147.91-25.02L147.91-25.02Q147.30-23.74 146.95-22.29L146.95-22.29L146.95-22.29Q146.60-20.84 146.47-19.28L146.47-19.28L146.47-19.28Q146.33-17.72 146.33-16.22L146.33-16.22L146.33-16.22Q146.33-14.73 146.47-13.18L146.47-13.18L146.47-13.18Q146.60-11.63 146.96-10.19L146.96-10.19L146.96-10.19Q147.32-8.74 147.94-7.46L147.94-7.46L147.94-7.46Q148.56-6.18 149.52-5.22L149.52-5.22L149.52-5.22Q150.49-4.27 151.85-3.71L151.85-3.71L151.85-3.71Q153.21-3.14 155.03-3.14L155.03-3.14L155.03-3.14Q156.80-3.14 158.13-3.72L158.13-3.72L158.13-3.72Q159.45-4.29 160.42-5.27L160.42-5.27L160.42-5.27Q161.38-6.24 162.02-7.54L162.02-7.54L162.02-7.54Q162.66-8.83 163.03-10.28L163.03-10.28L163.03-10.28Q163.40-11.72 163.56-13.25L163.56-13.25L163.56-13.25Q163.72-14.78 163.72-16.22" fill="#74007a" stroke="none" stroke-width="none" transform="translate(-122.83001708984375,12.652365199497774)" style="fill: rgb(255, 103, 255);"></path></g><g class="path" style="transform: scale(0.91); transform-origin: 74.21px -3.51763px; animation: 1s linear -0.39s infinite normal forwards running breath-a8823b62-1d5c-40b8-a99f-45323258787d;"><path d="M191.64 0L184.25-24.12L181.73 0L176.23 0L181.73-32.34L189.88-32.34L197.45-7.66L205.11-32.34L213.27-32.34L217.85 0L208.77 0L206.10-23.49L199.79 0L191.64 0" fill="#74007a" stroke="none" stroke-width="none" transform="translate(-122.83001708984375,12.652365199497774)" style="fill: rgb(250, 176, 250);"></path></g><g class="path" style="transform: scale(0.91); transform-origin: 112.515px -3.51763px; animation: 1s linear -0.13s infinite normal forwards running breath-a8823b62-1d5c-40b8-a99f-45323258787d;"><path d="M246.96-4.13L246.96 0L223.73 0L223.73-32.34L246.96-32.34L246.96-28.21L232.65-28.21L232.65-18.22L243.70-18.22L243.70-14.11L232.65-14.11L232.65-4.13L246.96-4.13" fill="#74007a" stroke="none" stroke-width="none" transform="translate(-122.83001708984375,12.652365199497774)" style="fill: rgb(116, 0, 122);"></path></g></g>
</g>
</g>
<style id="breath-a8823b62-1d5c-40b8-a99f-45323258787d" data-anikit="">@keyframes breath-a8823b62-1d5c-40b8-a99f-45323258787d
{
  0% {
    animation-timing-function: cubic-bezier(0.9647,0.2413,-0.0705,0.7911);
    transform: scale(0.9099999999999999);
  }
  51% {
    animation-timing-function: cubic-bezier(0.9226,0.2631,-0.0308,0.7628);
    transform: scale(1.02994);
  }
  100% {
    transform: scale(0.9099999999999999);
  }
}</style></svg>